<?xml version="1.0" encoding="utf-8"?>
<!-- Generator: Adobe Illustrator 27.5.0, SVG Export Plug-In . SVG Version: 6.00 Build 0)  -->
<svg version="1.1" id="Layer_1" xmlns="http://www.w3.org/2000/svg" xmlns:xlink="http://www.w3.org/1999/xlink" x="0px" y="0px"
	 viewBox="0 0 4000 4000" style="enable-background:new 0 0 4000 4000;" xml:space="preserve">
<rect x="-0.5" y="-0.5" style="fill:#FFFFFF;stroke:#000000;stroke-miterlimit:10;" width="4000" height="4000"/>
<g>
	<path style="fill-rule:evenodd;clip-rule:evenodd;fill:#003780;" d="M1576.376,2392.812L940.641,3001.45
		c0,0,959.295-17.948,1076.374-908.318C1798.77,2277.302,1576.376,2392.812,1576.376,2392.812"/>
	<g>
		<defs>
			<path id="SVGID_1_" d="M1576.376,2392.812L940.641,3001.45c251.767-67.138,747.177-278.713,864.079-748.059
				C1674.692,2341.739,1576.376,2392.812,1576.376,2392.812"/>
		</defs>
		<clipPath id="SVGID_00000183243461584058122430000012349471848419414207_">
			<use xlink:href="#SVGID_1_"  style="overflow:visible;"/>
		</clipPath>
		
			<linearGradient id="SVGID_00000162328645469258751350000014461928062985872013_" gradientUnits="userSpaceOnUse" x1="1719.9941" y1="2426.063" x2="828.421" y2="2942.9604">
			<stop  offset="0" style="stop-color:#0286CF"/>
			<stop  offset="1" style="stop-color:#51F4E9"/>
		</linearGradient>
		
			<rect x="940.641" y="2253.392" style="clip-path:url(#SVGID_00000183243461584058122430000012349471848419414207_);fill:url(#SVGID_00000162328645469258751350000014461928062985872013_);" width="864.079" height="748.058"/>
	</g>
	<path style="fill-rule:evenodd;clip-rule:evenodd;fill:#003780;" d="M1771.003,2383.167L1510.149,3093
		c0,0,733.645-376.096,487.793-1107.531C1899.038,2210.031,1771.003,2383.167,1771.003,2383.167"/>
	<g>
		<defs>
			<path id="SVGID_00000042696182514622953390000003106349870015863719_" d="M1771.003,2383.167L1510.149,3093
				c168.97-146.89,471.454-497.267,384.452-903.67C1827.6,2306.621,1771.003,2383.167,1771.003,2383.167"/>
		</defs>
		<clipPath id="SVGID_00000065053337922922211750000006175133437302186904_">
			<use xlink:href="#SVGID_00000042696182514622953390000003106349870015863719_"  style="overflow:visible;"/>
		</clipPath>
		
			<linearGradient id="SVGID_00000119816982246871331070000003167085873622465457_" gradientUnits="userSpaceOnUse" x1="1924.4264" y1="2374.7239" x2="1431.452" y2="3110.3618">
			<stop  offset="0" style="stop-color:#0286CF"/>
			<stop  offset="1" style="stop-color:#51F4E9"/>
		</linearGradient>
		
			<rect x="1510.149" y="2189.33" style="clip-path:url(#SVGID_00000065053337922922211750000006175133437302186904_);fill:url(#SVGID_00000119816982246871331070000003167085873622465457_);" width="471.454" height="903.67"/>
	</g>
	<g>
		<defs>
			<path id="SVGID_00000072274191867192144650000006004129687972459677_" d="M2164.621,1394.014
				c-314.892,395.386-611.851,923.182-712.229,1120.619l597.16-105.746c579.244-137.571,727.711-503.258,771.836-792.008
				c3.903-25.544,6.99-50.486,9.487-74.615c10.855-104.925,18.473-287.307,37.667-358.998c11.185-41.779,36.08-74.965,84.124-86.163
				c34.929-8.141,76.456-4.968,106.148,3.94c-40.434-69.979-130.629-102.636-130.629-102.636
				c-23.883-48.496-69.59-68.918-108.401-77.312c-138.117-29.868-312.801,92.344-491.612,282.6
				C2273.732,1261.618,2218.91,1325.848,2164.621,1394.014"/>
		</defs>
		<clipPath id="SVGID_00000036966019641902428840000000723645514876727215_">
			<use xlink:href="#SVGID_00000072274191867192144650000006004129687972459677_"  style="overflow:visible;"/>
		</clipPath>
		
			<linearGradient id="SVGID_00000035518334980475240890000001513766548867713708_" gradientUnits="userSpaceOnUse" x1="2473.708" y1="2073.4429" x2="1883.4818" y2="1070.7773">
			<stop  offset="0" style="stop-color:#0F0DB2"/>
			<stop  offset="1" style="stop-color:#EC2FD3"/>
		</linearGradient>
		
			<rect x="1452.393" y="891.227" style="clip-path:url(#SVGID_00000036966019641902428840000000723645514876727215_);fill:url(#SVGID_00000035518334980475240890000001513766548867713708_);" width="1606.421" height="1623.407"/>
	</g>
	<defs>
		<filter id="Adobe_OpacityMaskFilter" filterUnits="userSpaceOnUse" x="1783.904" y="916.612" width="1274.909" height="1021.986">
			<feColorMatrix  type="matrix" values="1 0 0 0 0  0 1 0 0 0  0 0 1 0 0  0 0 0 1 0"/>
		</filter>
	</defs>
	
		<mask maskUnits="userSpaceOnUse" x="1783.904" y="916.612" width="1274.909" height="1021.986" id="SVGID_00000170268159621184805840000011796824856952791486_">
		<g style="filter:url(#Adobe_OpacityMaskFilter);">
			
				<linearGradient id="SVGID_00000058577197276327072730000010041408521203082919_" gradientUnits="userSpaceOnUse" x1="-993.4303" y1="2430.844" x2="-831.6892" y2="3059.095" gradientTransform="matrix(1 0 0 1 3248.7046 -1648.3606)">
				<stop  offset="0" style="stop-color:#FFFFFF"/>
				<stop  offset="1" style="stop-color:#000000"/>
			</linearGradient>
			
				<rect x="1783.904" y="916.612" style="fill:url(#SVGID_00000058577197276327072730000010041408521203082919_);" width="1274.909" height="1021.986"/>
		</g>
	</mask>
	
		<path style="mask:url(#SVGID_00000170268159621184805840000011796824856952791486_);fill-rule:evenodd;clip-rule:evenodd;fill:#FFCE4B;" d="
		M2164.621,1394.014c-134.881,169.36-266.456,363.004-380.717,544.584c0.479-0.101,466.318-97.618,701.881-558.505
		c235.684-461.126,573.029-279.051,573.029-279.051c-40.434-69.979-130.629-102.636-130.629-102.636
		c-23.883-48.496-69.59-68.918-108.401-77.312c-138.117-29.868-312.801,92.344-491.612,282.6
		C2273.732,1261.618,2218.91,1325.848,2164.621,1394.014"/>
	<defs>
		
			<filter id="Adobe_OpacityMaskFilter_00000008119286746187927430000017187422562212419734_" filterUnits="userSpaceOnUse" x="1452.393" y="1616.879" width="1368.996" height="897.754">
			<feColorMatrix  type="matrix" values="1 0 0 0 0  0 1 0 0 0  0 0 1 0 0  0 0 0 1 0"/>
		</filter>
	</defs>
	
		<mask maskUnits="userSpaceOnUse" x="1452.393" y="1616.879" width="1368.996" height="897.754" id="SVGID_00000181809418482040864940000008749175745452597151_">
		<g style="filter:url(#Adobe_OpacityMaskFilter_00000008119286746187927430000017187422562212419734_);">
			
				<linearGradient id="SVGID_00000163790466785054757740000015750388836672519558_" gradientUnits="userSpaceOnUse" x1="-1050.5072" y1="2906.8794" x2="-963.4151" y2="3671.9893" gradientTransform="matrix(1 0 0 1 3120.8071 -1426.1255)">
				<stop  offset="0" style="stop-color:#FFFFFF"/>
				<stop  offset="1" style="stop-color:#000000"/>
			</linearGradient>
			
				<rect x="1452.393" y="1616.879" style="fill:url(#SVGID_00000163790466785054757740000015750388836672519558_);" width="1368.996" height="897.754"/>
		</g>
	</mask>
	<path style="mask:url(#SVGID_00000181809418482040864940000008749175745452597151_);fill-rule:evenodd;clip-rule:evenodd;" d="
		M1702.55,2070.5c-113.993,188.534-203.405,352.174-250.157,444.133l597.16-105.746
		c579.244-137.571,727.711-503.258,771.836-792.008C2821.388,1616.879,2513.764,2150.454,1702.55,2070.5"/>
	<defs>
		
			<filter id="Adobe_OpacityMaskFilter_00000010277535945788517570000017160170757053229971_" filterUnits="userSpaceOnUse" x="2328.171" y="916.612" width="600.013" height="287.082">
			<feColorMatrix  type="matrix" values="1 0 0 0 0  0 1 0 0 0  0 0 1 0 0  0 0 0 1 0"/>
		</filter>
	</defs>
	
		<mask maskUnits="userSpaceOnUse" x="2328.171" y="916.612" width="600.013" height="287.082" id="SVGID_00000159461768510675735440000005547463259440753059_">
		<g style="filter:url(#Adobe_OpacityMaskFilter_00000010277535945788517570000017160170757053229971_);">
			
				<linearGradient id="SVGID_00000005972621102098982870000013821934692459764900_" gradientUnits="userSpaceOnUse" x1="-862.4398" y1="2727.0061" x2="-808.2411" y2="3176.8218" gradientTransform="matrix(1 0 0 1 3458.6833 -1931.8876)">
				<stop  offset="0" style="stop-color:#FFFFFF"/>
				<stop  offset="1" style="stop-color:#000000"/>
			</linearGradient>
			
				<rect x="2328.171" y="916.611" style="fill:url(#SVGID_00000005972621102098982870000013821934692459764900_);" width="600.014" height="287.082"/>
		</g>
	</mask>
	
		<path style="mask:url(#SVGID_00000159461768510675735440000005547463259440753059_);fill-rule:evenodd;clip-rule:evenodd;fill:#FCE2A6;" d="
		M2328.171,1203.694c345.162-289.214,600.013-205.288,600.013-205.288c-23.883-48.496-69.59-68.918-108.401-77.312
		C2681.666,891.227,2506.982,1013.438,2328.171,1203.694"/>
	<g>
		<defs>
			<path id="SVGID_00000029047439057480035540000006595194935491878815_" d="M2551.374,1538.438
				c0-123.676-100.26-223.935-223.935-223.935c-50.953,0-97.93,17.017-135.56,45.678
				c-274.454,336.667-537.508,727.828-796.918,1080.653c403.246,61.429,805.308-124.252,1017.83-478.606
				C2490.288,1833.013,2537.531,1688.396,2551.374,1538.438"/>
		</defs>
		<clipPath id="SVGID_00000049181418066795728040000004182726666941361329_">
			<use xlink:href="#SVGID_00000029047439057480035540000006595194935491878815_"  style="overflow:visible;"/>
		</clipPath>
		
			<linearGradient id="SVGID_00000139286825759761083100000015153322607058555838_" gradientUnits="userSpaceOnUse" x1="1911.7699" y1="2400.7097" x2="2070.5034" y2="1127.8782">
			<stop  offset="0" style="stop-color:#0286CF"/>
			<stop  offset="1" style="stop-color:#AFF022"/>
		</linearGradient>
		
			<rect x="1394.961" y="1314.503" style="clip-path:url(#SVGID_00000049181418066795728040000004182726666941361329_);fill:url(#SVGID_00000139286825759761083100000015153322607058555838_);" width="1156.413" height="1187.761"/>
	</g>
	<defs>
		
			<filter id="Adobe_OpacityMaskFilter_00000129917665857879558530000011633246080174399909_" filterUnits="userSpaceOnUse" x="1438.861" y="1314.503" width="1012.985" height="1066.363">
			<feColorMatrix  type="matrix" values="1 0 0 0 0  0 1 0 0 0  0 0 1 0 0  0 0 0 1 0"/>
		</filter>
	</defs>
	
		<mask maskUnits="userSpaceOnUse" x="1438.861" y="1314.503" width="1012.985" height="1066.363" id="SVGID_00000168807396497363808260000006363184298438139819_">
		<g style="filter:url(#Adobe_OpacityMaskFilter_00000129917665857879558530000011633246080174399909_);">
			
				<linearGradient id="SVGID_00000142860125633789276510000014530332122938834599_" gradientUnits="userSpaceOnUse" x1="-1439.7784" y1="3086.1323" x2="-858.1833" y2="3602.4348" gradientTransform="matrix(1 0 0 1 3115.5867 -1477.7328)">
				<stop  offset="0" style="stop-color:#FFFFFF"/>
				<stop  offset="1" style="stop-color:#000000"/>
			</linearGradient>
			
				<rect x="1438.861" y="1314.503" style="fill:url(#SVGID_00000142860125633789276510000014530332122938834599_);" width="1012.986" height="1066.364"/>
		</g>
	</mask>
	
		<path style="mask:url(#SVGID_00000168807396497363808260000006363184298438139819_);fill-rule:evenodd;clip-rule:evenodd;fill:#FFFFFF;" d="
		M2403.319,1327.698c-23.697-8.534-49.243-13.195-75.88-13.195c-50.953,0-97.93,17.017-135.56,45.678
		c-258.984,317.691-507.818,683.901-753.018,1020.64c352.72,3.341,687.142-177.895,874.403-490.127
		c77.497-129.215,124.739-273.833,138.583-423.791C2451.847,1414.289,2433.692,1365.921,2403.319,1327.698"/>
</g>
</svg>
